<svg width="14" height="17" viewBox="0 0 14 17" fill="none" xmlns="http://www.w3.org/2000/svg">
<mask id="path-1-inside-1_1_446" fill="white">
<path fill-rule="evenodd" clip-rule="evenodd" d="M5.83856 1H7.83856C8.94313 1 9.83856 1.89543 9.83856 3V5H3.83856V3C3.83856 1.89543 4.73399 1 5.83856 1ZM2.83856 5V3C2.83856 1.34315 4.18171 0 5.83856 0H7.83856C9.49542 0 10.8386 1.34315 10.8386 3V5H11.0547C12.0991 5 12.9677 5.80364 13.0487 6.84491L13.6709 14.8449C13.7613 16.0071 12.8426 17 11.6769 17H2.00012C0.834427 17 -0.0842489 16.0071 0.00614326 14.8449L0.628366 6.84491C0.709354 5.80364 1.57792 5 2.62234 5H2.83856ZM10.8386 6H2.83856H2.62234C2.10013 6 1.66585 6.40182 1.62535 6.92245L1.00313 14.9225C0.957936 15.5035 1.41727 16 2.00012 16H11.6769C12.2598 16 12.7191 15.5035 12.6739 14.9225L12.0517 6.92246C12.0112 6.40182 11.5769 6 11.0547 6H10.8386Z"/>
</mask>
<path fill-rule="evenodd" clip-rule="evenodd" d="M5.83856 1H7.83856C8.94313 1 9.83856 1.89543 9.83856 3V5H3.83856V3C3.83856 1.89543 4.73399 1 5.83856 1ZM2.83856 5V3C2.83856 1.34315 4.18171 0 5.83856 0H7.83856C9.49542 0 10.8386 1.34315 10.8386 3V5H11.0547C12.0991 5 12.9677 5.80364 13.0487 6.84491L13.6709 14.8449C13.7613 16.0071 12.8426 17 11.6769 17H2.00012C0.834427 17 -0.0842489 16.0071 0.00614326 14.8449L0.628366 6.84491C0.709354 5.80364 1.57792 5 2.62234 5H2.83856ZM10.8386 6H2.83856H2.62234C2.10013 6 1.66585 6.40182 1.62535 6.92245L1.00313 14.9225C0.957936 15.5035 1.41727 16 2.00012 16H11.6769C12.2598 16 12.7191 15.5035 12.6739 14.9225L12.0517 6.92246C12.0112 6.40182 11.5769 6 11.0547 6H10.8386Z" fill="#1C2A39"/>
<path d="M9.83856 5V6H10.8386V5H9.83856ZM3.83856 5H2.83856V6H3.83856V5ZM2.83856 5V6H3.83856V5H2.83856ZM10.8386 5H9.83856V6H10.8386V5ZM13.0487 6.84491L14.0457 6.76737L13.0487 6.84491ZM13.6709 14.8449L12.6739 14.9225L13.6709 14.8449ZM0.00614326 14.8449L-0.990846 14.7674L-0.990846 14.7674L0.00614326 14.8449ZM0.628366 6.84491L-0.368623 6.76737L-0.368623 6.76737L0.628366 6.84491ZM1.62535 6.92245L0.628366 6.84491L0.628366 6.84491L1.62535 6.92245ZM1.00313 14.9225L0.00614326 14.8449L0.00614326 14.8449L1.00313 14.9225ZM12.6739 14.9225L11.6769 15L11.6769 15L12.6739 14.9225ZM12.0517 6.92246L11.0547 7L12.0517 6.92246ZM7.83856 0H5.83856V2H7.83856V0ZM10.8386 3C10.8386 1.34315 9.49542 0 7.83856 0V2C8.39085 2 8.83856 2.44772 8.83856 3H10.8386ZM10.8386 5V3H8.83856V5H10.8386ZM9.83856 4H3.83856V6H9.83856V4ZM2.83856 3V5H4.83856V3H2.83856ZM5.83856 0C4.18171 0 2.83856 1.34315 2.83856 3H4.83856C4.83856 2.44772 5.28628 2 5.83856 2V0ZM1.83856 3V5H3.83856V3H1.83856ZM5.83856 -1C3.62942 -1 1.83856 0.790861 1.83856 3H3.83856C3.83856 1.89543 4.73399 1 5.83856 1V-1ZM7.83856 -1H5.83856V1H7.83856V-1ZM11.8386 3C11.8386 0.790861 10.0477 -1 7.83856 -1V1C8.94313 1 9.83856 1.89543 9.83856 3H11.8386ZM11.8386 5V3H9.83856V5H11.8386ZM11.0547 4H10.8386V6H11.0547V4ZM14.0457 6.76737C13.9242 5.20546 12.6213 4 11.0547 4V6C11.5769 6 12.0112 6.40182 12.0517 6.92246L14.0457 6.76737ZM14.6679 14.7674L14.0457 6.76737L12.0517 6.92246L12.6739 14.9225L14.6679 14.7674ZM11.6769 18C13.4255 18 14.8035 16.5106 14.6679 14.7674L12.6739 14.9225C12.7191 15.5035 12.2598 16 11.6769 16V18ZM2.00012 18H11.6769V16H2.00012V18ZM-0.990846 14.7674C-1.12643 16.5106 0.251581 18 2.00012 18V16C1.41727 16 0.957936 15.5035 1.00313 14.9225L-0.990846 14.7674ZM-0.368623 6.76737L-0.990846 14.7674L1.00313 14.9225L1.62535 6.92245L-0.368623 6.76737ZM2.62234 4C1.05572 4 -0.247141 5.20545 -0.368623 6.76737L1.62535 6.92245C1.66585 6.40182 2.10013 6 2.62234 6V4ZM2.83856 4H2.62234V6H2.83856V4ZM10.8386 5H2.83856V7H10.8386V5ZM2.83856 5H2.62234V7H2.83856V5ZM2.62234 5C1.57792 5 0.709354 5.80364 0.628366 6.84491L2.62234 7L2.62234 7V5ZM0.628366 6.84491L0.00614326 14.8449L2.00012 15L2.62234 7L0.628366 6.84491ZM0.00614326 14.8449C-0.0842487 16.0071 0.834426 17 2.00012 17V15L2.00012 15L0.00614326 14.8449ZM2.00012 17H11.6769V15H2.00012V17ZM11.6769 17C12.8426 17 13.7613 16.0071 13.6709 14.8449L11.6769 15L11.6769 15V17ZM13.6709 14.8449L13.0487 6.84491L11.0547 7L11.6769 15L13.6709 14.8449ZM13.0487 6.84491C12.9677 5.80364 12.0991 5 11.0547 5V7L11.0547 7L13.0487 6.84491ZM11.0547 5H10.8386V7H11.0547V5Z" fill="#1C2A39" mask="url(#path-1-inside-1_1_446)"/>
</svg>
